<svg width="900" height="700" viewBox="0 0 900 700" fill="none" xmlns="http://www.w3.org/2000/svg">
  <rect width="900" height="700" rx="40" fill="#E8F1FF"/>
  <circle cx="690" cy="150" r="110" fill="#BFDBFE"/>
  <circle cx="170" cy="570" r="150" fill="#DBEAFE"/>

  <rect x="500" y="170" width="250" height="330" rx="28" fill="white"/>
  <rect x="535" y="210" width="180" height="18" rx="9" fill="#0F172A"/>
  <rect x="535" y="250" width="130" height="12" rx="6" fill="#CBD5E1"/>

  <rect x="535" y="300" width="180" height="58" rx="16" fill="#EFF6FF"/>
  <circle cx="562" cy="329" r="14" fill="#3B82F6"/>
  <path d="M555 329L560 334L570 322" stroke="white" stroke-width="3" stroke-linecap="round" stroke-linejoin="round"/>
  <rect x="590" y="320" width="90" height="10" rx="5" fill="#94A3B8"/>

  <rect x="535" y="375" width="180" height="58" rx="16" fill="#F8FAFC"/>
  <circle cx="562" cy="404" r="14" fill="#CBD5E1"/>
  <rect x="590" y="395" width="90" height="10" rx="5" fill="#94A3B8"/>

  <circle cx="285" cy="275" r="58" fill="#F8FAFC"/>
  <circle cx="285" cy="255" r="28" fill="#334155"/>
  <path d="M225 345C225 302 345 302 345 345V370H225V345Z" fill="#3B82F6"/>

  <circle cx="170" cy="420" r="52" fill="#F8FAFC"/>
  <circle cx="170" cy="403" r="24" fill="#475569"/>
  <path d="M118 465C118 428 222 428 222 465V485H118V465Z" fill="#60A5FA"/>

  <circle cx="365" cy="470" r="52" fill="#F8FAFC"/>
  <circle cx="365" cy="453" r="24" fill="#475569"/>
  <path d="M313 515C313 478 417 478 417 515V535H313V515Z" fill="#2563EB"/>

  <path d="M360 330C410 290 450 285 505 300" stroke="#3B82F6" stroke-width="5" stroke-linecap="round" stroke-dasharray="10 12"/>
  <circle cx="505" cy="300" r="9" fill="#3B82F6"/>
</svg>
